<mxfile host="app.diagrams.net" modified="2024-04-28T09:34:56.028Z" agent="Mozilla/5.0 (Macintosh; Intel Mac OS X 10_15_7) AppleWebKit/537.36 (KHTML, like Gecko) Chrome/124.0.0.0 Safari/537.36 Edg/124.0.0.0" etag="S9ANkzuuh7iMRzlFx8Vr" version="24.3.1" type="github">
  <diagram name="Page-1" id="c4acf3e9-155e-7222-9cf6-157b1a14988f">
    <mxGraphModel dx="3383" dy="1269" grid="1" gridSize="10" guides="1" tooltips="1" connect="1" arrows="1" fold="1" page="1" pageScale="1" pageWidth="850" pageHeight="1100" background="none" math="0" shadow="0">
      <root>
        <mxCell id="0" />
        <mxCell id="1" parent="0" />
        <mxCell id="l7Yu_lnrWGyJAPHijI7I-1" value="1" style="rounded=0;whiteSpace=wrap;html=1;" vertex="1" parent="1">
          <mxGeometry x="100" y="370" width="120" height="60" as="geometry" />
        </mxCell>
        <mxCell id="l7Yu_lnrWGyJAPHijI7I-2" value="2" style="rounded=0;whiteSpace=wrap;html=1;" vertex="1" parent="1">
          <mxGeometry x="280" y="370" width="120" height="60" as="geometry" />
        </mxCell>
        <mxCell id="l7Yu_lnrWGyJAPHijI7I-3" value="3" style="rounded=0;whiteSpace=wrap;html=1;" vertex="1" parent="1">
          <mxGeometry x="440" y="370" width="120" height="60" as="geometry" />
        </mxCell>
        <mxCell id="l7Yu_lnrWGyJAPHijI7I-4" value="4" style="rounded=0;whiteSpace=wrap;html=1;" vertex="1" parent="1">
          <mxGeometry x="610" y="370" width="120" height="60" as="geometry" />
        </mxCell>
        <mxCell id="l7Yu_lnrWGyJAPHijI7I-5" value="0" style="rounded=0;whiteSpace=wrap;html=1;" vertex="1" parent="1">
          <mxGeometry x="-70" y="370" width="130" height="130" as="geometry" />
        </mxCell>
        <mxCell id="l7Yu_lnrWGyJAPHijI7I-6" value="5" style="rounded=0;whiteSpace=wrap;html=1;" vertex="1" parent="1">
          <mxGeometry x="770" y="370" width="130" height="130" as="geometry" />
        </mxCell>
        <mxCell id="l7Yu_lnrWGyJAPHijI7I-7" value="6" style="rounded=0;whiteSpace=wrap;html=1;rotation=90;" vertex="1" parent="1">
          <mxGeometry x="810" y="580" width="120" height="60" as="geometry" />
        </mxCell>
        <mxCell id="l7Yu_lnrWGyJAPHijI7I-8" value="7" style="rounded=0;whiteSpace=wrap;html=1;rotation=90;" vertex="1" parent="1">
          <mxGeometry x="810" y="740" width="120" height="60" as="geometry" />
        </mxCell>
        <mxCell id="l7Yu_lnrWGyJAPHijI7I-9" value="8" style="rounded=0;whiteSpace=wrap;html=1;rotation=90;" vertex="1" parent="1">
          <mxGeometry x="810" y="900" width="120" height="60" as="geometry" />
        </mxCell>
        <mxCell id="l7Yu_lnrWGyJAPHijI7I-10" value="9" style="rounded=0;whiteSpace=wrap;html=1;rotation=90;" vertex="1" parent="1">
          <mxGeometry x="810" y="1070" width="120" height="60" as="geometry" />
        </mxCell>
        <mxCell id="l7Yu_lnrWGyJAPHijI7I-11" value="10" style="rounded=0;whiteSpace=wrap;html=1;" vertex="1" parent="1">
          <mxGeometry x="770" y="1200" width="130" height="130" as="geometry" />
        </mxCell>
        <mxCell id="l7Yu_lnrWGyJAPHijI7I-12" value="14" style="rounded=0;whiteSpace=wrap;html=1;" vertex="1" parent="1">
          <mxGeometry x="110" y="1270" width="120" height="60" as="geometry" />
        </mxCell>
        <mxCell id="l7Yu_lnrWGyJAPHijI7I-13" value="13" style="rounded=0;whiteSpace=wrap;html=1;" vertex="1" parent="1">
          <mxGeometry x="290" y="1270" width="120" height="60" as="geometry" />
        </mxCell>
        <mxCell id="l7Yu_lnrWGyJAPHijI7I-14" value="12" style="rounded=0;whiteSpace=wrap;html=1;" vertex="1" parent="1">
          <mxGeometry x="450" y="1270" width="120" height="60" as="geometry" />
        </mxCell>
        <mxCell id="l7Yu_lnrWGyJAPHijI7I-15" value="11" style="rounded=0;whiteSpace=wrap;html=1;" vertex="1" parent="1">
          <mxGeometry x="620" y="1270" width="120" height="60" as="geometry" />
        </mxCell>
        <mxCell id="l7Yu_lnrWGyJAPHijI7I-16" value="15" style="rounded=0;whiteSpace=wrap;html=1;" vertex="1" parent="1">
          <mxGeometry x="-50" y="1200" width="130" height="130" as="geometry" />
        </mxCell>
        <mxCell id="l7Yu_lnrWGyJAPHijI7I-17" value="19" style="rounded=0;whiteSpace=wrap;html=1;rotation=90;" vertex="1" parent="1">
          <mxGeometry x="-80" y="570" width="120" height="60" as="geometry" />
        </mxCell>
        <mxCell id="l7Yu_lnrWGyJAPHijI7I-18" value="18" style="rounded=0;whiteSpace=wrap;html=1;rotation=90;" vertex="1" parent="1">
          <mxGeometry x="-80" y="730" width="120" height="60" as="geometry" />
        </mxCell>
        <mxCell id="l7Yu_lnrWGyJAPHijI7I-19" value="17" style="rounded=0;whiteSpace=wrap;html=1;rotation=90;" vertex="1" parent="1">
          <mxGeometry x="-80" y="890" width="120" height="60" as="geometry" />
        </mxCell>
        <mxCell id="l7Yu_lnrWGyJAPHijI7I-20" value="16" style="rounded=0;whiteSpace=wrap;html=1;rotation=90;" vertex="1" parent="1">
          <mxGeometry x="-80" y="1060" width="120" height="60" as="geometry" />
        </mxCell>
        <mxCell id="l7Yu_lnrWGyJAPHijI7I-23" value="" style="edgeStyle=orthogonalEdgeStyle;rounded=0;orthogonalLoop=1;jettySize=auto;html=1;" edge="1" parent="1" source="l7Yu_lnrWGyJAPHijI7I-21">
          <mxGeometry relative="1" as="geometry">
            <mxPoint x="457" y="932.5" as="targetPoint" />
          </mxGeometry>
        </mxCell>
        <mxCell id="l7Yu_lnrWGyJAPHijI7I-21" value="" style="rounded=0;whiteSpace=wrap;html=1;" vertex="1" parent="1">
          <mxGeometry x="232" y="890" width="168" height="85" as="geometry" />
        </mxCell>
        <mxCell id="l7Yu_lnrWGyJAPHijI7I-24" value="property, such as house" style="text;html=1;align=center;verticalAlign=middle;resizable=0;points=[];autosize=1;strokeColor=none;fillColor=none;fontSize=24;" vertex="1" parent="1">
          <mxGeometry x="457" y="912" width="280" height="40" as="geometry" />
        </mxCell>
        <mxCell id="l7Yu_lnrWGyJAPHijI7I-27" value="" style="edgeStyle=orthogonalEdgeStyle;rounded=0;orthogonalLoop=1;jettySize=auto;html=1;" edge="1" parent="1" source="l7Yu_lnrWGyJAPHijI7I-25">
          <mxGeometry relative="1" as="geometry">
            <mxPoint x="474.5" y="1132" as="targetPoint" />
          </mxGeometry>
        </mxCell>
        <mxCell id="l7Yu_lnrWGyJAPHijI7I-25" value="" style="rounded=0;whiteSpace=wrap;html=1;" vertex="1" parent="1">
          <mxGeometry x="230" y="1052" width="170" height="160" as="geometry" />
        </mxCell>
        <mxCell id="l7Yu_lnrWGyJAPHijI7I-28" value="action, such as&amp;nbsp;&amp;nbsp;taxes" style="text;html=1;align=center;verticalAlign=middle;resizable=0;points=[];autosize=1;strokeColor=none;fillColor=none;fontSize=24;" vertex="1" parent="1">
          <mxGeometry x="472" y="1112" width="250" height="40" as="geometry" />
        </mxCell>
        <mxCell id="l7Yu_lnrWGyJAPHijI7I-30" value="total 20 steps" style="text;html=1;align=center;verticalAlign=middle;resizable=0;points=[];autosize=1;strokeColor=none;fillColor=none;fontSize=24;" vertex="1" parent="1">
          <mxGeometry x="315" y="468" width="170" height="40" as="geometry" />
        </mxCell>
        <mxCell id="l7Yu_lnrWGyJAPHijI7I-31" value="" style="rounded=0;whiteSpace=wrap;html=1;" vertex="1" parent="1">
          <mxGeometry x="315" y="630" width="130" height="130" as="geometry" />
        </mxCell>
        <mxCell id="l7Yu_lnrWGyJAPHijI7I-32" value="" style="rounded=0;whiteSpace=wrap;html=1;" vertex="1" parent="1">
          <mxGeometry x="325" y="620" width="130" height="130" as="geometry" />
        </mxCell>
        <mxCell id="l7Yu_lnrWGyJAPHijI7I-33" value="" style="rounded=0;whiteSpace=wrap;html=1;" vertex="1" parent="1">
          <mxGeometry x="335" y="605" width="130" height="130" as="geometry" />
        </mxCell>
        <mxCell id="l7Yu_lnrWGyJAPHijI7I-34" value="" style="rounded=0;whiteSpace=wrap;html=1;" vertex="1" parent="1">
          <mxGeometry x="345" y="585" width="130" height="130" as="geometry" />
        </mxCell>
        <mxCell id="l7Yu_lnrWGyJAPHijI7I-35" value="xxxActionCard" style="rounded=0;whiteSpace=wrap;html=1;" vertex="1" parent="1">
          <mxGeometry x="355" y="565" width="130" height="130" as="geometry" />
        </mxCell>
        <mxCell id="l7Yu_lnrWGyJAPHijI7I-36" value="deck for draw action card" style="text;html=1;align=center;verticalAlign=middle;resizable=0;points=[];autosize=1;strokeColor=none;fillColor=none;fontSize=26;" vertex="1" parent="1">
          <mxGeometry x="230" y="790" width="310" height="40" as="geometry" />
        </mxCell>
      </root>
    </mxGraphModel>
  </diagram>
</mxfile>
